STARTFONT 2.1
FONT -DEC-Terminal-Bold-R-Double Wide--14-100-100-100-C-160-DEC-DECtech
SIZE 10 100 100
FONTBOUNDINGBOX 16 15 0 -3

STARTPROPERTIES 25
CHARSET_REGISTRY "DEC"
CHARSET_ENCODING "DECtech"
CAP_HEIGHT 10
X_HEIGHT 8
AVERAGE_WIDTH 160
FONTNAME_REGISTRY ""
FAMILY_NAME "Terminal"
FOUNDRY "DEC"
WEIGHT_NAME "Bold"
SETWIDTH_NAME "Double Wide"
SLANT "R"
ADD_STYLE_NAME ""
PIXEL_SIZE 14
POINT_SIZE 100
RESOLUTION_X 100
RESOLUTION_Y 100
SPACING "C"
CHARSET_COLLECTIONS "DEC-DECtech"
FULL_NAME "Terminal Bold Double Wide"
COPYRIGHT "Copyright (c) 1990 Digital Equipment Corp. All rights reserved."
WEIGHT 10
QUAD_WIDTH 16
DEFAULT_CHAR 159
FONT_DESCENT 3
FONT_ASCENT 12
ENDPROPERTIES

CHARS 181

STARTCHAR space
ENCODING 32
SWIDTH 1140 0
DWIDTH 16 0
BBX 1 1 0 0
BITMAP
00
ENDCHAR

STARTCHAR exclam
ENCODING 33
SWIDTH 1140 0
DWIDTH 16 0
BBX 3 10 6 0
BITMAP
E0
E0
E0
E0
E0
E0
E0
00
E0
E0
ENDCHAR

STARTCHAR quotedbl
ENCODING 34
SWIDTH 1140 0
DWIDTH 16 0
BBX 9 5 3 6
BITMAP
E380
E380
E380
E380
E380
ENDCHAR

STARTCHAR numbersign
ENCODING 35
SWIDTH 1140 0
DWIDTH 16 0
BBX 13 9 1 0
BITMAP
38E0
38E0
FFF8
FFF8
38E0
FFF8
FFF8
38E0
38E0
ENDCHAR

STARTCHAR dollar
ENCODING 36
SWIDTH 1140 0
DWIDTH 16 0
BBX 12 11 2 -1
BITMAP
0F00
0F00
7FE0
F9F0
F800
7FE0
01F0
F9F0
7FE0
0F00
0F00
ENDCHAR

STARTCHAR percent
ENCODING 37
SWIDTH 1140 0
DWIDTH 16 0
BBX 14 10 1 0
BITMAP
7038
D870
D8E0
D9C0
7380
0738
0E6C
1C6C
386C
7038
ENDCHAR

STARTCHAR ampersand
ENCODING 38
SWIDTH 1140 0
DWIDTH 16 0
BBX 14 10 1 0
BITMAP
3F00
7F80
7380
3300
3E00
7F3C
F3F8
F1E0
FFF0
7F78
ENDCHAR

STARTCHAR quoteright
ENCODING 39
SWIDTH 1140 0
DWIDTH 16 0
BBX 7 4 4 6
BITMAP
1E
3E
78
E0
ENDCHAR

STARTCHAR parenleft
ENCODING 40
SWIDTH 1140 0
DWIDTH 16 0
BBX 7 12 7 -1
BITMAP
1E
3C
78
70
F0
E0
E0
F0
70
78
3C
1E
ENDCHAR

STARTCHAR parenright
ENCODING 41
SWIDTH 1140 0
DWIDTH 16 0
BBX 7 12 2 -1
BITMAP
F0
78
3C
1C
1E
0E
0E
1E
1C
3C
78
F0
ENDCHAR

STARTCHAR asterisk
ENCODING 42
SWIDTH 1140 0
DWIDTH 16 0
BBX 9 8 3 2
BITMAP
6300
7700
3E00
FF80
FF80
3E00
7700
6300
ENDCHAR

STARTCHAR plus
ENCODING 43
SWIDTH 1140 0
DWIDTH 16 0
BBX 11 8 2 1
BITMAP
0E00
0E00
0E00
FFE0
FFE0
0E00
0E00
0E00
ENDCHAR

STARTCHAR comma
ENCODING 44
SWIDTH 1140 0
DWIDTH 16 0
BBX 6 4 4 -1
BITMAP
3C
3C
38
F0
ENDCHAR

STARTCHAR minus
ENCODING 45
SWIDTH 1140 0
DWIDTH 16 0
BBX 10 2 3 4
BITMAP
FFC0
FFC0
ENDCHAR

STARTCHAR period
ENCODING 46
SWIDTH 1140 0
DWIDTH 16 0
BBX 4 3 6 0
BITMAP
F0
F0
F0
ENDCHAR

STARTCHAR slash
ENCODING 47
SWIDTH 1140 0
DWIDTH 16 0
BBX 10 12 3 -1
BITMAP
01C0
01C0
03C0
0780
0700
0E00
1C00
3800
7800
7000
E000
E000
ENDCHAR

STARTCHAR zero
ENCODING 48
SWIDTH 1140 0
DWIDTH 16 0
BBX 11 10 2 0
BITMAP
0E00
3F80
7BC0
F1E0
F1E0
F1E0
F1E0
7BC0
3F80
0E00
ENDCHAR

STARTCHAR one
ENCODING 49
SWIDTH 1140 0
DWIDTH 16 0
BBX 10 10 3 0
BITMAP
3E00
7E00
FE00
9E00
1E00
1E00
1E00
1E00
FFC0
FFC0
ENDCHAR

STARTCHAR two
ENCODING 50
SWIDTH 1140 0
DWIDTH 16 0
BBX 10 10 3 0
BITMAP
7F80
FFC0
E3C0
03C0
0780
1F00
3C00
7800
FFC0
FFC0
ENDCHAR

STARTCHAR three
ENCODING 51
SWIDTH 1140 0
DWIDTH 16 0
BBX 11 10 2 0
BITMAP
7FC0
FFE0
C1E0
01E0
1FC0
1FE0
01E0
C1E0
FFE0
7FC0
ENDCHAR

STARTCHAR four
ENCODING 52
SWIDTH 1140 0
DWIDTH 16 0
BBX 13 10 2 0
BITMAP
03E0
07E0
0FE0
3DE0
71E0
E1E0
FFF8
FFF8
01E0
01E0
ENDCHAR

STARTCHAR five
ENCODING 53
SWIDTH 1140 0
DWIDTH 16 0
BBX 11 10 3 0
BITMAP
FFC0
FFC0
F000
F000
FFC0
FFE0
01E0
C3E0
FFC0
7F80
ENDCHAR

STARTCHAR six
ENCODING 54
SWIDTH 1140 0
DWIDTH 16 0
BBX 11 10 2 0
BITMAP
1FC0
7FC0
F000
F000
F7C0
FFE0
F1E0
F1E0
7FE0
3FC0
ENDCHAR

STARTCHAR seven
ENCODING 55
SWIDTH 1140 0
DWIDTH 16 0
BBX 11 10 3 0
BITMAP
FFE0
FFE0
E3C0
0780
0F00
0F00
1E00
1E00
3C00
3C00
ENDCHAR

STARTCHAR eight
ENCODING 56
SWIDTH 1140 0
DWIDTH 16 0
BBX 11 10 2 0
BITMAP
3F80
FFE0
F1E0
F1E0
3F80
FFE0
F1E0
F1E0
FFE0
3F80
ENDCHAR

STARTCHAR nine
ENCODING 57
SWIDTH 1140 0
DWIDTH 16 0
BBX 11 10 2 0
BITMAP
3F80
7FC0
F1E0
F1E0
F1E0
7FE0
3DE0
01E0
7FC0
7F80
ENDCHAR

STARTCHAR colon
ENCODING 58
SWIDTH 1140 0
DWIDTH 16 0
BBX 4 8 6 0
BITMAP
F0
F0
F0
00
00
F0
F0
F0
ENDCHAR

STARTCHAR semicolon
ENCODING 59
SWIDTH 1140 0
DWIDTH 16 0
BBX 6 9 4 -1
BITMAP
3C
3C
3C
00
00
3C
3C
38
F0
ENDCHAR

STARTCHAR less
ENCODING 60
SWIDTH 1140 0
DWIDTH 16 0
BBX 12 9 2 0
BITMAP
01F0
07C0
1F00
7C00
F000
7C00
1F00
07C0
01F0
ENDCHAR

STARTCHAR equal
ENCODING 61
SWIDTH 1140 0
DWIDTH 16 0
BBX 10 5 3 2
BITMAP
FFC0
FFC0
0000
FFC0
FFC0
ENDCHAR

STARTCHAR greater
ENCODING 62
SWIDTH 1140 0
DWIDTH 16 0
BBX 12 9 2 0
BITMAP
F800
3E00
0F80
03E0
00F0
03E0
0F80
3E00
F800
ENDCHAR

STARTCHAR question
ENCODING 63
SWIDTH 1140 0
DWIDTH 16 0
BBX 11 11 2 0
BITMAP
3F00
FFC0
E3E0
C1E0
03E0
0FC0
1F00
1E00
0000
1E00
1E00
ENDCHAR

STARTCHAR at
ENCODING 64
SWIDTH 1140 0
DWIDTH 16 0
BBX 13 12 2 -1
BITMAP
3FF0
F838
F038
F3F8
F798
F798
F798
F7F8
F1F0
F000
F838
3FF8
ENDCHAR

STARTCHAR A
ENCODING 65
SWIDTH 1140 0
DWIDTH 16 0
BBX 16 10 0 0
BITMAP
0180
03C0
07E0
0FF0
1E78
3C3C
3FFC
7FFE
F81F
F81F
ENDCHAR

STARTCHAR B
ENCODING 66
SWIDTH 1140 0
DWIDTH 16 0
BBX 15 10 1 0
BITMAP
FFF8
7FFC
787C
7838
7FF0
7FFC
783E
787E
7FFC
FFF8
ENDCHAR

STARTCHAR C
ENCODING 67
SWIDTH 1140 0
DWIDTH 16 0
BBX 14 10 1 0
BITMAP
0FE0
3FF8
7C3C
F800
F800
F800
F81C
7C3C
3FF8
0FE0
ENDCHAR

STARTCHAR D
ENCODING 68
SWIDTH 1140 0
DWIDTH 16 0
BBX 14 10 1 0
BITMAP
FFC0
7FF0
78F8
787C
787C
787C
787C
78F8
7FF0
FFC0
ENDCHAR

STARTCHAR E
ENCODING 69
SWIDTH 1140 0
DWIDTH 16 0
BBX 13 10 1 0
BITMAP
FFF8
3FF8
3C18
3C08
3FC0
3FC0
3C08
3C18
3FF8
FFF8
ENDCHAR

STARTCHAR F
ENCODING 70
SWIDTH 1140 0
DWIDTH 16 0
BBX 13 10 1 0
BITMAP
FFF8
3FF8
3C18
3C08
3FE0
3FE0
3C00
3C00
3C00
FF00
ENDCHAR

STARTCHAR G
ENCODING 71
SWIDTH 1140 0
DWIDTH 16 0
BBX 14 10 1 0
BITMAP
1FE0
7FF8
FC3C
F800
F800
F9FC
F9FC
FC7C
7FFC
1FF0
ENDCHAR

STARTCHAR H
ENCODING 72
SWIDTH 1140 0
DWIDTH 16 0
BBX 14 10 1 0
BITMAP
FCFC
7878
7878
7878
7FF8
7FF8
7878
7878
7878
FCFC
ENDCHAR

STARTCHAR I
ENCODING 73
SWIDTH 1140 0
DWIDTH 16 0
BBX 10 10 3 0
BITMAP
FFC0
FFC0
1E00
1E00
1E00
1E00
1E00
1E00
FFC0
FFC0
ENDCHAR

STARTCHAR J
ENCODING 74
SWIDTH 1140 0
DWIDTH 16 0
BBX 11 10 2 0
BITMAP
1FE0
1FE0
01E0
01E0
01E0
01E0
01E0
F1E0
FFC0
7F80
ENDCHAR

STARTCHAR K
ENCODING 75
SWIDTH 1140 0
DWIDTH 16 0
BBX 14 10 1 0
BITMAP
FC3C
7878
78F0
79E0
7FC0
7F80
7FE0
79F0
78F8
FC7C
ENDCHAR

STARTCHAR L
ENCODING 76
SWIDTH 1140 0
DWIDTH 16 0
BBX 12 10 2 0
BITMAP
FF00
3C00
3C00
3C00
3C00
3C00
3C10
3C30
3FF0
FFF0
ENDCHAR

STARTCHAR M
ENCODING 77
SWIDTH 1140 0
DWIDTH 16 0
BBX 16 10 0 0
BITMAP
F81F
7C3E
7C3E
7E7E
7FFE
7BDE
799E
799E
799E
F81F
ENDCHAR

STARTCHAR N
ENCODING 78
SWIDTH 1140 0
DWIDTH 16 0
BBX 14 10 1 0
BITMAP
F87C
7878
7C78
7E78
7F78
7BF8
79F8
78F8
7878
F878
ENDCHAR

STARTCHAR O
ENCODING 79
SWIDTH 1140 0
DWIDTH 16 0
BBX 14 10 1 0
BITMAP
0FC0
3FF0
7CF8
F87C
F87C
F87C
F87C
7CF8
3FF0
0FC0
ENDCHAR

STARTCHAR P
ENCODING 80
SWIDTH 1140 0
DWIDTH 16 0
BBX 14 10 1 0
BITMAP
FFE0
7FF8
787C
783C
787C
7FF8
7FE0
7800
7800
FC00
ENDCHAR

STARTCHAR Q
ENCODING 81
SWIDTH 1140 0
DWIDTH 16 0
BBX 14 12 1 -2
BITMAP
0FC0
3FF0
7CF8
F87C
F87C
F87C
F87C
7DF8
3FF0
0FC0
00E0
0070
ENDCHAR

STARTCHAR R
ENCODING 82
SWIDTH 1140 0
DWIDTH 16 0
BBX 14 10 1 0
BITMAP
FFC0
7FF0
78F8
7878
78F8
7FF0
7FC0
79F0
78F8
FC7C
ENDCHAR

STARTCHAR S
ENCODING 83
SWIDTH 1140 0
DWIDTH 16 0
BBX 13 10 2 0
BITMAP
1FC0
7FF0
F878
FE00
7FC0
3FF0
07F8
F078
7FF0
3FC0
ENDCHAR

STARTCHAR T
ENCODING 84
SWIDTH 1140 0
DWIDTH 16 0
BBX 12 10 2 0
BITMAP
FFF0
FFF0
8F10
0F00
0F00
0F00
0F00
0F00
0F00
1F80
ENDCHAR

STARTCHAR U
ENCODING 85
SWIDTH 1140 0
DWIDTH 16 0
BBX 14 10 1 0
BITMAP
FCFC
7878
7878
7878
7878
7878
7878
3CF0
3FF0
0FC0
ENDCHAR

STARTCHAR V
ENCODING 86
SWIDTH 1140 0
DWIDTH 16 0
BBX 15 10 1 0
BITMAP
FC7E
783C
783C
3838
3C78
1C70
1EF0
0FE0
07C0
0380
ENDCHAR

STARTCHAR W
ENCODING 87
SWIDTH 1140 0
DWIDTH 16 0
BBX 16 10 0 0
BITMAP
F81F
799E
799E
799E
7BDE
3BDC
3FFC
1E78
1C38
1C38
ENDCHAR

STARTCHAR X
ENCODING 88
SWIDTH 1140 0
DWIDTH 16 0
BBX 15 10 1 0
BITMAP
FC3E
3E78
1FF0
0FE0
07C0
07C0
0FE0
1EF0
3C78
F83E
ENDCHAR

STARTCHAR Y
ENCODING 89
SWIDTH 1140 0
DWIDTH 16 0
BBX 16 10 0 0
BITMAP
F81F
7C3E
3E7C
1E78
0FF0
07E0
03C0
03C0
03C0
07E0
ENDCHAR

STARTCHAR Z
ENCODING 90
SWIDTH 1140 0
DWIDTH 16 0
BBX 12 10 2 0
BITMAP
FFF0
FFF0
C0F0
83E0
07C0
1F00
7C10
F830
FFF0
FFF0
ENDCHAR

STARTCHAR bracketleft
ENCODING 91
SWIDTH 1140 0
DWIDTH 16 0
BBX 8 12 6 -1
BITMAP
FF
FF
F0
F0
F0
F0
F0
F0
F0
F0
FF
FF
ENDCHAR

STARTCHAR backslash
ENCODING 92
SWIDTH 1140 0
DWIDTH 16 0
BBX 10 12 3 -1
BITMAP
E000
E000
F000
7800
3800
1C00
0E00
0700
0780
03C0
01C0
01C0
ENDCHAR

STARTCHAR bracketright
ENCODING 93
SWIDTH 1140 0
DWIDTH 16 0
BBX 8 12 2 -1
BITMAP
FF
FF
0F
0F
0F
0F
0F
0F
0F
0F
FF
FF
ENDCHAR

STARTCHAR asciicircum
ENCODING 94
SWIDTH 1140 0
DWIDTH 16 0
BBX 11 4 2 4
BITMAP
1F00
3F80
7BC0
F1E0
ENDCHAR

STARTCHAR ldblank
ENCODING 95
SWIDTH 1140 0
DWIDTH 16 0
BBX 1 1 0 0
BITMAP
00
ENDCHAR

STARTCHAR diamond
ENCODING 96
SWIDTH 1140 0
DWIDTH 16 0
BBX 14 8 1 0
BITMAP
0300
0FC0
3FF0
FFFC
FFFC
3FF0
0FC0
0300
ENDCHAR

STARTCHAR checkerboard
ENCODING 97
SWIDTH 1140 0
DWIDTH 16 0
BBX 16 15 0 -3
BITMAP
CCCC
3333
CCCC
3333
CCCC
3333
CCCC
3333
CCCC
3333
CCCC
3333
CCCC
3333
3333
ENDCHAR

STARTCHAR HT
ENCODING 98
SWIDTH 1140 0
DWIDTH 16 0
BBX 12 12 2 -2
BITMAP
F0F0
F0F0
FFF0
F0F0
F0F0
0000
0000
FFF0
0F00
0F00
0F00
0F00
ENDCHAR

STARTCHAR FF
ENCODING 99
SWIDTH 1140 0
DWIDTH 16 0
BBX 12 12 2 -2
BITMAP
FF00
F000
FF00
F000
F000
0000
0000
0FF0
0F00
0FF0
0F00
0F00
ENDCHAR

STARTCHAR CR
ENCODING 100
SWIDTH 1140 0
DWIDTH 16 0
BBX 11 12 2 -2
BITMAP
3FE0
F000
F000
7000
3FE0
0000
0000
FFC0
F0E0
FFC0
F380
F1E0
ENDCHAR

STARTCHAR LF
ENCODING 101
SWIDTH 1140 0
DWIDTH 16 0
BBX 12 12 2 -2
BITMAP
F000
F000
F000
F000
FF00
0000
0000
3FF0
3C00
3FF0
3C00
3C00
ENDCHAR

STARTCHAR degree
ENCODING 102
SWIDTH 1140 0
DWIDTH 16 0
BBX 8 4 4 6
BITMAP
7E
E7
E7
7E
ENDCHAR

STARTCHAR plusminus
ENCODING 103
SWIDTH 1140 0
DWIDTH 16 0
BBX 11 11 3 -1
BITMAP
0E00
0E00
0E00
FFE0
FFE0
0E00
0E00
0E00
0000
FFE0
FFE0
ENDCHAR

STARTCHAR NL
ENCODING 104
SWIDTH 1140 0
DWIDTH 16 0
BBX 12 11 2 -1
BITMAP
F0F0
FCF0
FFF0
F3F0
F0F0
0000
7800
7800
7800
7800
7FF0
ENDCHAR

STARTCHAR VT
ENCODING 105
SWIDTH 1140 0
DWIDTH 16 0
BBX 10 11 3 -1
BITMAP
F3C0
F3C0
F3C0
3F00
0C00
0000
FFC0
1E00
1E00
1E00
1E00
ENDCHAR

STARTCHAR ldcornsqlr
ENCODING 106
SWIDTH 1140 0
DWIDTH 16 0
BBX 10 8 0 4
BITMAP
03C0
03C0
03C0
03C0
03C0
03C0
FFC0
FFC0
ENDCHAR

STARTCHAR ldcornsqur
ENCODING 107
SWIDTH 1140 0
DWIDTH 16 0
BBX 10 9 0 -3
BITMAP
FFC0
FFC0
03C0
03C0
03C0
03C0
03C0
03C0
03C0
ENDCHAR

STARTCHAR ldcornsqul
ENCODING 108
SWIDTH 1140 0
DWIDTH 16 0
BBX 10 9 6 -3
BITMAP
FFC0
FFC0
F000
F000
F000
F000
F000
F000
F000
ENDCHAR

STARTCHAR ldcornsqll
ENCODING 109
SWIDTH 1140 0
DWIDTH 16 0
BBX 10 8 6 4
BITMAP
F000
F000
F000
F000
F000
F000
FFC0
FFC0
ENDCHAR

STARTCHAR ldcross
ENCODING 110
SWIDTH 1140 0
DWIDTH 16 0
BBX 16 15 0 -3
BITMAP
03C0
03C0
03C0
03C0
03C0
03C0
FFFF
FFFF
03C0
03C0
03C0
03C0
03C0
03C0
03C0
ENDCHAR

STARTCHAR ldscan1
ENCODING 111
SWIDTH 1140 0
DWIDTH 16 0
BBX 16 2 0 9
BITMAP
FFFF
FFFF
ENDCHAR

STARTCHAR ldscan3
ENCODING 112
SWIDTH 1140 0
DWIDTH 16 0
BBX 16 2 0 6
BITMAP
FFFF
FFFF
ENDCHAR

STARTCHAR ldhorizontal
ENCODING 113
SWIDTH 1140 0
DWIDTH 16 0
BBX 16 2 0 4
BITMAP
FFFF
FFFF
ENDCHAR

STARTCHAR ldscan7
ENCODING 114
SWIDTH 1140 0
DWIDTH 16 0
BBX 16 2 0 0
BITMAP
FFFF
FFFF
ENDCHAR

STARTCHAR ldscan9
ENCODING 115
SWIDTH 1140 0
DWIDTH 16 0
BBX 16 2 0 -3
BITMAP
FFFF
FFFF
ENDCHAR

STARTCHAR ldteelft
ENCODING 116
SWIDTH 1140 0
DWIDTH 16 0
BBX 10 15 6 -3
BITMAP
F000
F000
F000
F000
F000
F000
FFC0
FFC0
F000
F000
F000
F000
F000
F000
F000
ENDCHAR

STARTCHAR ldteert
ENCODING 117
SWIDTH 1140 0
DWIDTH 16 0
BBX 10 15 0 -3
BITMAP
03C0
03C0
03C0
03C0
03C0
03C0
FFC0
FFC0
03C0
03C0
03C0
03C0
03C0
03C0
03C0
ENDCHAR

STARTCHAR ldteebt
ENCODING 118
SWIDTH 1140 0
DWIDTH 16 0
BBX 16 8 0 4
BITMAP
03C0
03C0
03C0
03C0
03C0
03C0
FFFF
FFFF
ENDCHAR

STARTCHAR ldteetp
ENCODING 119
SWIDTH 1140 0
DWIDTH 16 0
BBX 16 9 0 -3
BITMAP
FFFF
FFFF
03C0
03C0
03C0
03C0
03C0
03C0
03C0
ENDCHAR

STARTCHAR ldvertical
ENCODING 120
SWIDTH 1140 0
DWIDTH 16 0
BBX 4 15 6 -3
BITMAP
F0
F0
F0
F0
F0
F0
F0
F0
F0
F0
F0
F0
F0
F0
F0
ENDCHAR

STARTCHAR lessequal
ENCODING 121
SWIDTH 1140 0
DWIDTH 16 0
BBX 12 10 2 0
BITMAP
00F0
07F0
3F00
F800
3F00
07F0
00F0
0000
FFF0
FFF0
ENDCHAR

STARTCHAR greaterequal
ENCODING 122
SWIDTH 1140 0
DWIDTH 16 0
BBX 12 10 2 0
BITMAP
F000
FE00
0FC0
01F0
0FC0
FE00
F000
0000
FFF0
FFF0
ENDCHAR

STARTCHAR pi
ENCODING 123
SWIDTH 1140 0
DWIDTH 16 0
BBX 14 8 1 -1
BITMAP
FFFC
FFFC
3CF0
3CF0
3CF0
3CF0
3CF0
003C
ENDCHAR

STARTCHAR notequal
ENCODING 124
SWIDTH 1140 0
DWIDTH 16 0
BBX 10 7 3 1
BITMAP
0300
FFC0
FFC0
0C00
FFC0
FFC0
3000
ENDCHAR

STARTCHAR sterling
ENCODING 125
SWIDTH 1140 0
DWIDTH 16 0
BBX 13 10 2 0
BITMAP
0FE0
1FF0
3C30
3C00
FF80
FF80
3C00
3E08
7FF8
FDF8
ENDCHAR

STARTCHAR periodcentered
ENCODING 126
SWIDTH 1140 0
DWIDTH 16 0
BBX 4 2 6 5
BITMAP
F0
F0
ENDCHAR

STARTCHAR Error
ENCODING 159
SWIDTH 1140 0
DWIDTH 16 0
BBX 14 15 1 -3
BITMAP
1FF8
7FFC
FFFC
FC7C
FC00
FF00
7FE0
1FF0
03F0
03F0
0000
03F0
03F0
03F0
03F0
ENDCHAR

STARTCHAR ldradicalbt
ENCODING 161
SWIDTH 1140 0
DWIDTH 16 0
BBX 8 12 2 0
BITMAP
0F
0F
0F
0F
0F
0F
0F
0F
FF
FF
0F
03
ENDCHAR

STARTCHAR ldradicaltp
ENCODING 162
SWIDTH 1140 0
DWIDTH 16 0
BBX 10 11 6 -3
BITMAP
FFC0
FFC0
F000
F000
F000
F000
F000
F000
F000
F000
F000
ENDCHAR

STARTCHAR ldhorizontal
ENCODING 163
SWIDTH 1140 0
DWIDTH 16 0
BBX 16 2 0 4
BITMAP
FFFF
FFFF
ENDCHAR

STARTCHAR ldintegraltp
ENCODING 164
SWIDTH 1140 0
DWIDTH 16 0
BBX 10 12 6 -3
BITMAP
3F00
7FC0
70C0
F000
F000
F000
F000
F000
F000
F000
F000
F000
ENDCHAR

STARTCHAR ldintegralbt
ENCODING 165
SWIDTH 1140 0
DWIDTH 16 0
BBX 10 11 0 1
BITMAP
03C0
03C0
03C0
03C0
03C0
03C0
03C0
03C0
C380
FF80
3F00
ENDCHAR

STARTCHAR ldvertical
ENCODING 166
SWIDTH 1140 0
DWIDTH 16 0
BBX 4 15 6 -3
BITMAP
F0
F0
F0
F0
F0
F0
F0
F0
F0
F0
F0
F0
F0
F0
F0
ENDCHAR

STARTCHAR ldbracketlfttp
ENCODING 167
SWIDTH 1140 0
DWIDTH 16 0
BBX 8 14 6 -3
BITMAP
FF
FF
F0
F0
F0
F0
F0
F0
F0
F0
F0
F0
F0
F0
ENDCHAR

STARTCHAR ldbracketlftbt
ENCODING 168
SWIDTH 1140 0
DWIDTH 16 0
BBX 8 14 6 -2
BITMAP
F0
F0
F0
F0
F0
F0
F0
F0
F0
F0
F0
F0
FF
FF
ENDCHAR

STARTCHAR ldbracketrttp
ENCODING 169
SWIDTH 1140 0
DWIDTH 16 0
BBX 8 14 2 -3
BITMAP
FF
FF
0F
0F
0F
0F
0F
0F
0F
0F
0F
0F
0F
0F
ENDCHAR

STARTCHAR ldbracketrtbt
ENCODING 170
SWIDTH 1140 0
DWIDTH 16 0
BBX 8 14 2 -2
BITMAP
0F
0F
0F
0F
0F
0F
0F
0F
0F
0F
0F
0F
FF
FF
ENDCHAR

STARTCHAR ldbracelfttp
ENCODING 171
SWIDTH 1140 0
DWIDTH 16 0
BBX 8 14 6 -3
BITMAP
3F
7F
70
F0
F0
F0
F0
F0
F0
F0
F0
F0
F0
F0
ENDCHAR

STARTCHAR ldbracelftbt
ENCODING 172
SWIDTH 1140 0
DWIDTH 16 0
BBX 8 14 6 -2
BITMAP
F0
F0
F0
F0
F0
F0
F0
F0
F0
F0
F0
70
7F
3F
ENDCHAR

STARTCHAR ldbracerttp
ENCODING 173
SWIDTH 1140 0
DWIDTH 16 0
BBX 8 14 2 -3
BITMAP
FC
FE
0E
0F
0F
0F
0F
0F
0F
0F
0F
0F
0F
0F
ENDCHAR

STARTCHAR ldbracertbt
ENCODING 174
SWIDTH 1140 0
DWIDTH 16 0
BBX 8 14 2 -2
BITMAP
0F
0F
0F
0F
0F
0F
0F
0F
0F
0F
0F
0E
FE
FC
ENDCHAR

STARTCHAR ldbracelftmid
ENCODING 175
SWIDTH 1140 0
DWIDTH 16 0
BBX 8 15 2 -3
BITMAP
0F
0F
0F
0F
0F
3C
F0
3C
0F
0F
0F
0F
0F
0F
0F
ENDCHAR

STARTCHAR ldbracertmid
ENCODING 176
SWIDTH 1140 0
DWIDTH 16 0
BBX 8 15 6 -3
BITMAP
F0
F0
F0
F0
F0
3C
0F
3C
F0
F0
F0
F0
F0
F0
F0
ENDCHAR

STARTCHAR ldsigmalfttp
ENCODING 177
SWIDTH 1140 0
DWIDTH 16 0
BBX 10 9 6 -3
BITMAP
FFC0
FFC0
7000
3800
1C00
0E00
0780
03C0
00C0
ENDCHAR

STARTCHAR ldsigmalftb0t
ENCODING 178
SWIDTH 1140 0
DWIDTH 16 0
BBX 9 8 7 4
BITMAP
0380
0780
0F00
1C00
3800
7000
FF80
FF80
ENDCHAR

STARTCHAR ldbackslash
ENCODING 179
SWIDTH 1140 0
DWIDTH 16 0
BBX 16 15 0 -3
BITMAP
C000
E000
7000
3800
1C00
0E00
0780
03C0
01E0
0070
0038
001C
000E
0007
0003
ENDCHAR

STARTCHAR ldslash
ENCODING 180
SWIDTH 1140 0
DWIDTH 16 0
BBX 16 15 0 -3
BITMAP
0003
0007
000E
001C
0038
0070
01E0
03C0
0780
0E00
1C00
3800
7000
E000
C000
ENDCHAR

STARTCHAR ldsigmarttp
ENCODING 181
SWIDTH 1140 0
DWIDTH 16 0
BBX 14 4 0 2
BITMAP
FFFC
FFFC
000C
000C
ENDCHAR

STARTCHAR ldsigmartbt
ENCODING 182
SWIDTH 1140 0
DWIDTH 16 0
BBX 14 4 0 4
BITMAP
000C
000C
FFFC
FFFC
ENDCHAR

STARTCHAR ldsigmamid
ENCODING 183
SWIDTH 1140 0
DWIDTH 16 0
BBX 8 15 0 -3
BITMAP
C0
E0
70
38
1C
0E
07
03
07
0E
1C
38
70
E0
C0
ENDCHAR

STARTCHAR lessequal
ENCODING 188
SWIDTH 1140 0
DWIDTH 16 0
BBX 12 10 2 0
BITMAP
00F0
07F0
3F00
F800
3F00
07F0
00F0
0000
FFF0
FFF0
ENDCHAR

STARTCHAR notequal
ENCODING 189
SWIDTH 1140 0
DWIDTH 16 0
BBX 10 7 3 1
BITMAP
0300
FFC0
FFC0
0C00
FFC0
FFC0
3000
ENDCHAR

STARTCHAR greaterequal
ENCODING 190
SWIDTH 1140 0
DWIDTH 16 0
BBX 12 10 2 0
BITMAP
F000
FE00
0FC0
01F0
0FC0
FE00
F000
0000
FFF0
FFF0
ENDCHAR

STARTCHAR integral
ENCODING 191
SWIDTH 1140 0
DWIDTH 16 0
BBX 12 12 2 -1
BITMAP
03C0
0F30
0F00
0F00
0F00
0F00
0F00
0F00
0F00
0F00
CF00
3C00
ENDCHAR

STARTCHAR therefore
ENCODING 192
SWIDTH 1140 0
DWIDTH 16 0
BBX 12 7 2 1
BITMAP
0F00
0F00
0000
0000
0000
F0F0
F0F0
ENDCHAR

STARTCHAR proportional
ENCODING 193
SWIDTH 1140 0
DWIDTH 16 0
BBX 13 6 2 0
BITMAP
3C78
FEE0
C300
C300
FFE0
3C78
ENDCHAR

STARTCHAR infinity
ENCODING 194
SWIDTH 1140 0
DWIDTH 16 0
BBX 12 6 2 0
BITMAP
39C0
FFF0
CC30
CC30
FFF0
39C0
ENDCHAR

STARTCHAR divide
ENCODING 195
SWIDTH 1140 0
DWIDTH 16 0
BBX 10 8 3 -1
BITMAP
0C00
0C00
0000
FFC0
FFC0
0000
0C00
0C00
ENDCHAR

STARTCHAR Delta
ENCODING 196
SWIDTH 1140 0
DWIDTH 16 0
BBX 14 10 1 0
BITMAP
0300
0780
0FC0
1FE0
3CF0
3870
7878
F03C
FFFC
FFFC
ENDCHAR

STARTCHAR gradient
ENCODING 197
SWIDTH 1140 0
DWIDTH 16 0
BBX 14 10 1 0
BITMAP
FFFC
FFFC
F03C
7878
3870
3CF0
1FE0
0FC0
0780
0300
ENDCHAR

STARTCHAR Phi
ENCODING 198
SWIDTH 1140 0
DWIDTH 16 0
BBX 14 11 1 -1
BITMAP
0FC0
0300
3FF0
7B78
F33C
F33C
F33C
7B78
3FF0
0300
0FC0
ENDCHAR

STARTCHAR Gamma
ENCODING 199
SWIDTH 1140 0
DWIDTH 16 0
BBX 9 10 4 0
BITMAP
FF80
FF80
7980
7800
7800
7800
7800
7800
FC00
FC00
ENDCHAR

STARTCHAR similar
ENCODING 200
SWIDTH 1140 0
DWIDTH 16 0
BBX 12 4 2 2
BITMAP
3030
FC30
CFF0
C3C0
ENDCHAR

STARTCHAR approxequal
ENCODING 201
SWIDTH 1140 0
DWIDTH 16 0
BBX 12 7 2 0
BITMAP
3030
FC30
CFF0
C3C0
0000
FFF0
FFF0
ENDCHAR

STARTCHAR Theta
ENCODING 202
SWIDTH 1140 0
DWIDTH 16 0
BBX 11 10 2 0
BITMAP
1F00
7FC0
F1E0
E0E0
EEE0
EAE0
E0E0
F1E0
7FC0
1F00
ENDCHAR

STARTCHAR multiply
ENCODING 203
SWIDTH 1140 0
DWIDTH 16 0
BBX 10 6 3 1
BITMAP
C0C0
F3C0
3F00
3F00
F3C0
C0C0
ENDCHAR

STARTCHAR Lambda
ENCODING 204
SWIDTH 1140 0
DWIDTH 16 0
BBX 14 10 1 0
BITMAP
0300
0780
0FC0
0FC0
1FE0
3CF0
3CF0
7878
F87C
F03C
ENDCHAR

STARTCHAR arrowdblboth
ENCODING 205
SWIDTH 1140 0
DWIDTH 16 0
BBX 14 9 1 0
BITMAP
0840
1020
3FF0
7FF8
C00C
7FF8
3FF0
1020
0840
ENDCHAR

STARTCHAR arrowdblright
ENCODING 206
SWIDTH 1140 0
DWIDTH 16 0
BBX 13 9 1 0
BITMAP
0C00
0300
FFC0
FFF0
0038
FFF0
FFC0
0300
0C00
ENDCHAR

STARTCHAR equivalence
ENCODING 207
SWIDTH 1140 0
DWIDTH 16 0
BBX 10 7 3 1
BITMAP
FFC0
FFC0
0000
FFC0
0000
FFC0
FFC0
ENDCHAR

STARTCHAR Pi
ENCODING 208
SWIDTH 1140 0
DWIDTH 16 0
BBX 14 10 1 0
BITMAP
FFFC
3CF0
3CF0
3CF0
3CF0
3CF0
3CF0
3CF0
3CF0
3CF0
ENDCHAR

STARTCHAR Psi
ENCODING 209
SWIDTH 1140 0
DWIDTH 16 0
BBX 14 10 1 0
BITMAP
F33C
F33C
3330
3330
3330
3FF0
0FC0
0300
0FC0
0FC0
ENDCHAR

STARTCHAR Sigma
ENCODING 211
SWIDTH 1140 0
DWIDTH 16 0
BBX 12 10 2 0
BITMAP
FFF0
FFF0
7C30
1E30
0F00
1E00
3C30
7830
FFF0
FFF0
ENDCHAR

STARTCHAR radical
ENCODING 214
SWIDTH 1140 0
DWIDTH 16 0
BBX 15 11 1 0
BITMAP
000E
001C
0038
0070
00E0
E0E0
E1C0
7380
7700
3E00
1C00
ENDCHAR

STARTCHAR Omega
ENCODING 215
SWIDTH 1140 0
DWIDTH 16 0
BBX 14 10 1 0
BITMAP
0FC0
3FF0
7878
F03C
F03C
F03C
F03C
7878
3CF0
FCFC
ENDCHAR

STARTCHAR Xi
ENCODING 216
SWIDTH 1140 0
DWIDTH 16 0
BBX 10 10 3 0
BITMAP
FFC0
FFC0
FFC0
0000
7F80
7F80
0000
FFC0
FFC0
FFC0
ENDCHAR

STARTCHAR Upsilon1
ENCODING 217
SWIDTH 1140 0
DWIDTH 16 0
BBX 14 10 1 0
BITMAP
F87C
7878
3CF0
1CE0
0FC0
0780
0780
0780
0780
0780
ENDCHAR

STARTCHAR propersubset
ENCODING 218
SWIDTH 1140 0
DWIDTH 16 0
BBX 11 7 2 1
BITMAP
3FE0
FFE0
F000
F000
F000
FFE0
3FE0
ENDCHAR

STARTCHAR propersuperset
ENCODING 219
SWIDTH 1140 0
DWIDTH 16 0
BBX 11 7 3 1
BITMAP
FF80
FFE0
01E0
01E0
01E0
FFE0
FF80
ENDCHAR

STARTCHAR intersection
ENCODING 220
SWIDTH 1140 0
DWIDTH 16 0
BBX 12 7 2 1
BITMAP
3FC0
FFF0
F0F0
F0F0
F0F0
F0F0
F0F0
ENDCHAR

STARTCHAR union
ENCODING 221
SWIDTH 1140 0
DWIDTH 16 0
BBX 12 7 2 1
BITMAP
F0F0
F0F0
F0F0
F0F0
F0F0
FFF0
3FC0
ENDCHAR

STARTCHAR logicaland
ENCODING 222
SWIDTH 1140 0
DWIDTH 16 0
BBX 14 7 1 1
BITMAP
0300
0FC0
1FE0
3CF0
3CF0
F03C
F03C
ENDCHAR

STARTCHAR logicalor
ENCODING 223
SWIDTH 1140 0
DWIDTH 16 0
BBX 14 7 1 1
BITMAP
F03C
F03C
3CF0
3CF0
1FE0
0780
0300
ENDCHAR

STARTCHAR logicalnot
ENCODING 224
SWIDTH 1140 0
DWIDTH 16 0
BBX 11 4 3 2
BITMAP
FFE0
FFE0
0060
0060
ENDCHAR

STARTCHAR alpha
ENCODING 225
SWIDTH 1140 0
DWIDTH 16 0
BBX 13 8 2 0
BITMAP
3E38
7FF8
F1F0
F1E0
F1E0
F3E0
7FF0
3E78
ENDCHAR

STARTCHAR beta
ENCODING 226
SWIDTH 1140 0
DWIDTH 16 0
BBX 12 10 2 0
BITMAP
07E0
0FF0
1E70
1E70
3FC0
3DE0
78F0
78F0
FFF0
E7E0
ENDCHAR

STARTCHAR chi
ENCODING 227
SWIDTH 1140 0
DWIDTH 16 0
BBX 14 10 1 -2
BITMAP
F87C
3CF0
1FE0
0F80
0780
0F80
1FC0
3DE0
78F0
F07C
ENDCHAR

STARTCHAR delta
ENCODING 228
SWIDTH 1140 0
DWIDTH 16 0
BBX 11 10 2 0
BITMAP
3FC0
78E0
3E00
7F80
F3C0
F3C0
F3C0
F3C0
7F80
3F00
ENDCHAR

STARTCHAR epsilon
ENCODING 229
SWIDTH 1140 0
DWIDTH 16 0
BBX 10 8 3 0
BITMAP
7FC0
FFC0
F800
7F80
FF80
F800
FFC0
7FC0
ENDCHAR

STARTCHAR phi
ENCODING 230
SWIDTH 1140 0
DWIDTH 16 0
BBX 13 12 2 -2
BITMAP
0200
0200
3FE0
7FF0
F278
F278
F278
F278
7FF0
3FE0
0200
0200
ENDCHAR

STARTCHAR gamma
ENCODING 231
SWIDTH 1140 0
DWIDTH 16 0
BBX 14 12 0 -3
BITMAP
3C00
FE0C
8F1C
0738
07F0
03E0
03C0
0780
0F00
0E00
1E00
1C00
ENDCHAR

STARTCHAR eta
ENCODING 232
SWIDTH 1140 0
DWIDTH 16 0
BBX 12 10 1 -2
BITMAP
E3C0
FFF0
3CF0
3CF0
3CF0
3CF0
3CF0
3CF0
00F0
00F0
ENDCHAR

STARTCHAR iota
ENCODING 233
SWIDTH 1140 0
DWIDTH 16 0
BBX 11 8 3 0
BITMAP
F000
F000
F000
F000
F000
F0E0
F3E0
3F80
ENDCHAR

STARTCHAR theta
ENCODING 234
SWIDTH 1140 0
DWIDTH 16 0
BBX 10 10 3 0
BITMAP
3F00
FFC0
F3C0
F3C0
FFC0
F3C0
F3C0
F3C0
FFC0
3F00
ENDCHAR

STARTCHAR kappa
ENCODING 235
SWIDTH 1140 0
DWIDTH 16 0
BBX 12 10 2 0
BITMAP
FC00
3C00
3C30
3CF0
3FC0
3F00
3F80
3DC0
3CF0
3CF0
ENDCHAR

STARTCHAR lambda
ENCODING 236
SWIDTH 1140 0
DWIDTH 16 0
BBX 14 10 1 0
BITMAP
1F00
0F80
07C0
0FC0
1FE0
3CF0
7CF8
7878
F87C
F87C
ENDCHAR

STARTCHAR nu
ENCODING 238
SWIDTH 1140 0
DWIDTH 16 0
BBX 13 8 1 0
BITMAP
F878
F878
F878
7C78
3C78
3EF0
0FE0
0F80
ENDCHAR

STARTCHAR partialdiff
ENCODING 239
SWIDTH 1140 0
DWIDTH 16 0
BBX 10 12 3 0
BITMAP
3800
3E00
0F00
0380
3F80
FFC0
F3C0
F3C0
F3C0
F3C0
FFC0
3F00
ENDCHAR

STARTCHAR pi
ENCODING 240
SWIDTH 1140 0
DWIDTH 16 0
BBX 14 9 1 -1
BITMAP
FFFC
3CF0
3CF0
3CF0
3CF0
3CF0
3CF0
3CF0
007C
ENDCHAR

STARTCHAR psi
ENCODING 241
SWIDTH 1140 0
DWIDTH 16 0
BBX 14 11 1 -2
BITMAP
0780
E79C
E79C
E79C
6798
77B8
3FF0
1FE0
0780
0780
0780
ENDCHAR

STARTCHAR rho
ENCODING 242
SWIDTH 1140 0
DWIDTH 16 0
BBX 11 11 3 -3
BITMAP
3F80
7FC0
71E0
F1E0
F1E0
F3E0
FFC0
FF00
F000
F000
F000
ENDCHAR

STARTCHAR sigma
ENCODING 243
SWIDTH 1140 0
DWIDTH 16 0
BBX 11 8 3 0
BITMAP
3FE0
7FE0
F380
F3C0
F3C0
F3C0
7F80
3F00
ENDCHAR

STARTCHAR tau
ENCODING 244
SWIDTH 1140 0
DWIDTH 16 0
BBX 12 8 2 0
BITMAP
3FF0
FFF0
CF00
0F00
0F00
0F00
0F00
0F80
ENDCHAR

STARTCHAR florin
ENCODING 246
SWIDTH 1140 0
DWIDTH 16 0
BBX 13 13 2 -3
BITMAP
03F0
07F8
0718
1FC0
1FC0
0700
0700
0700
0700
CF00
CE00
FE00
3C00
ENDCHAR

STARTCHAR omega
ENCODING 247
SWIDTH 1140 0
DWIDTH 16 0
BBX 14 8 1 0
BITMAP
3870
7038
F33C
F33C
F33C
F33C
7FF8
3CF0
ENDCHAR

STARTCHAR xi
ENCODING 248
SWIDTH 1140 0
DWIDTH 16 0
BBX 10 14 3 -2
BITMAP
3000
6000
7F00
3F00
3800
3000
7E00
7E00
F000
F000
FF80
7FC0
00C0
0180
ENDCHAR

STARTCHAR upsilon
ENCODING 249
SWIDTH 1140 0
DWIDTH 16 0
BBX 12 8 1 0
BITMAP
F860
7C30
3C30
3C30
3C30
3C70
3FE0
1F80
ENDCHAR

STARTCHAR zeta
ENCODING 250
SWIDTH 1140 0
DWIDTH 16 0
BBX 10 14 4 -2
BITMAP
3000
6000
7F00
7F00
3800
3800
7000
F000
E000
F000
FF80
7FC0
00C0
0180
ENDCHAR

STARTCHAR arrowleft
ENCODING 251
SWIDTH 1140 0
DWIDTH 16 0
BBX 12 6 2 1
BITMAP
0C00
3C00
FFF0
FFF0
3C00
0C00
ENDCHAR

STARTCHAR arrowup
ENCODING 252
SWIDTH 1140 0
DWIDTH 16 0
BBX 12 7 2 1
BITMAP
0F00
3FC0
FFF0
0F00
0F00
0F00
0F00
ENDCHAR

STARTCHAR arrowright
ENCODING 253
SWIDTH 1140 0
DWIDTH 16 0
BBX 12 6 2 1
BITMAP
0300
03C0
FFF0
FFF0
03C0
0300
ENDCHAR

STARTCHAR arrowdown
ENCODING 254
SWIDTH 1140 0
DWIDTH 16 0
BBX 12 7 2 1
BITMAP
0F00
0F00
0F00
0F00
FFF0
3FC0
0F00
ENDCHAR
ENDFONT
